# xmcd CD database file
#
# Track frame offsets:
#	150
#	8666
#	25936
#	54930
#	86164
#	108780
#	132437
#
# Disc length: 2158 seconds
#
# Revision: 0
# Processed by: cddbd v1.5.1PL0 Copyright (c) Steve Scherf et al.
# Submitted via: CDex 1.51
#
DISCID=4c086c07
DTITLE=Big Jerry - Live at Mr. White's
DYEAR=2004
DGENRE=Blues
TTITLE0=Blues Time at Mr. White's
TTITLE1=Gonna Rock this House
TTITLE2=Reconsider - Dresser Drawer
TTITLE3=Honky Tonking
TTITLE4=Baby, You Didn't Know
TTITLE5=Hole in the Wall
TTITLE6=You Got To Help Me
EXTD=YEAR: 2004
EXTT0=
EXTT1=
EXTT2=
EXTT3=
EXTT4=
EXTT5=
EXTT6=
PLAYORDER=
